<?xml version="1.0" encoding="UTF-8" standalone="no"?>
<!-- Generator: Adobe Illustrator 21.0.0, SVG Export Plug-In . SVG Version: 6.00 Build 0)  -->

<svg
   xmlns:dc="http://purl.org/dc/elements/1.1/"
   xmlns:cc="http://creativecommons.org/ns#"
   xmlns:rdf="http://www.w3.org/1999/02/22-rdf-syntax-ns#"
   xmlns:svg="http://www.w3.org/2000/svg"
   xmlns="http://www.w3.org/2000/svg"
   xmlns:sodipodi="http://sodipodi.sourceforge.net/DTD/sodipodi-0.dtd"
   xmlns:inkscape="http://www.inkscape.org/namespaces/inkscape"
   version="1.1"
   id="Calque_1"
   x="0px"
   y="0px"
   viewBox="0 0 266 300"
   style="enable-background:new 0 0 266 300;"
   xml:space="preserve"
   inkscape:version="0.48.5 r10040"
   width="100%"
   height="100%"
   sodipodi:docname="logo3.svg"><metadata
     id="metadata9"><rdf:RDF><cc:Work
         rdf:about=""><dc:format>image/svg+xml</dc:format><dc:type
           rdf:resource="http://purl.org/dc/dcmitype/StillImage" /></cc:Work></rdf:RDF></metadata><defs
     id="defs7" /><sodipodi:namedview
     pagecolor="#ffffff"
     bordercolor="#666666"
     borderopacity="1"
     objecttolerance="10"
     gridtolerance="10"
     guidetolerance="10"
     inkscape:pageopacity="0"
     inkscape:pageshadow="2"
     inkscape:window-width="1226"
     inkscape:window-height="1077"
     id="namedview5"
     showgrid="false"
     inkscape:zoom="0.13906433"
     inkscape:cx="-435.05662"
     inkscape:cy="-991.95202"
     inkscape:window-x="0"
     inkscape:window-y="0"
     inkscape:window-maximized="0"
     inkscape:current-layer="Calque_1" /><path
     d="M257.8,209.6V90.4c0-7.7-4.1-14.8-10.8-18.7L143.8,12.1c-6.7-3.9-14.9-3.9-21.6,0L18.9,71.7c-6.7,3.9-10.8,11-10.8,18.7  v119.3c0,7.7,4.1,14.8,10.8,18.7l103.3,59.6c6.7,3.9,14.9,3.9,21.6,0l103.3-59.6C253.7,224.5,257.8,217.3,257.8,209.6z"
     id="path3"
     style="fill:#282828;fill-opacity:1" /><style
     id="style3048"
     type="text/css">
	.st0{fill:#F3C12E;}
	.st1{fill:#BDCF7A;}
	.st2{fill:#DD7C7B;}
	.st3{fill:#DE70A2;}
	.st4{fill:#5EAEC7;}
	.st5{fill:#BFD7BB;}
</style><g
     id="g3050"
     transform="translate(-17.05,0.05)"><path
       id="path3052"
       d="m 175.1,89.4 c 0,26.6 -25.1,48.2 -25.1,48.2 0,0 -25.1,-21.6 -25.1,-48.2 0,-26.6 25.1,-48.2 25.1,-48.2 0,0 25.1,21.6 25.1,48.2 z"
       class="st0"
       inkscape:connector-curvature="0"
       style="fill:#f3c12e" /><path
       id="path3054"
       d="m 175.1,210.6 c 0,26.6 -25.1,48.2 -25.1,48.2 0,0 -25.1,-21.6 -25.1,-48.2 0,-26.6 25.1,-48.2 25.1,-48.2 0,0 25.1,21.5 25.1,48.2 z"
       class="st1"
       inkscape:connector-curvature="0"
       style="fill:#bdcf7a" /><path
       id="path3056"
       d="m 214.9,140.2 c -22.8,13.8 -54.3,3.4 -54.3,3.4 0,0 5.5,-32.7 28.3,-46.4 22.8,-13.7 54.3,-3.4 54.3,-3.4 0,0 -5.5,32.7 -28.3,46.4 z"
       class="st2"
       inkscape:connector-curvature="0"
       style="fill:#dd7c7b" /><path
       id="path3058"
       d="m 111.1,202.8 c -22.8,13.8 -54.3,3.4 -54.3,3.4 0,0 5.5,-32.7 28.3,-46.4 22.8,-13.7 54.3,-3.4 54.3,-3.4 0,0 -5.5,32.7 -28.3,46.4 z"
       class="st3"
       inkscape:connector-curvature="0"
       style="fill:#de70a2" /><path
       id="path3060"
       d="m 189,202.7 c -22.8,-13.7 -28.4,-46.3 -28.4,-46.3 0,0 31.4,-10.5 54.3,3.2 22.9,13.7 28.4,46.3 28.4,46.3 0,0 -31.4,10.5 -54.3,-3.2 z"
       class="st4"
       inkscape:connector-curvature="0"
       style="fill:#5eaec7" /><path
       id="path3062"
       d="M 85.1,140.4 C 62.3,126.7 56.7,94.1 56.7,94.1 c 0,0 31.4,-10.5 54.3,3.2 22.9,13.7 28.4,46.3 28.4,46.3 0,0 -31.4,10.5 -54.3,-3.2 z"
       class="st5"
       inkscape:connector-curvature="0"
       style="fill:#bfd7bb" /></g></svg>