<?xml version="1.0" encoding="utf-8"?>
<!-- Generator: Adobe Illustrator 21.0.0, SVG Export Plug-In . SVG Version: 6.00 Build 0)  -->
<svg version="1.1" id="Calque_1" xmlns="http://www.w3.org/2000/svg" xmlns:xlink="http://www.w3.org/1999/xlink" x="0px" y="0px"
	 viewBox="0 0 549 200" style="enable-background:new 0 0 549 200;" xml:space="preserve">
<style type="text/css">
	.st0{fill:#212121;}
	.st1{fill:#7F7763;}
	.st2{fill:#F4C32E;}
</style>
<g>
	<g>
		<path class="st0" d="M245.3,88.2h9.7v70.5h-9.7V88.2z M245.3,61.7h9.7v13.5h-9.7V61.7z"/>
		<path class="st0" d="M169.4,123.7c0,7.9,2.7,14.6,8.1,20c5.3,5.3,12,8,19.9,8c8,0,14.7-2.7,20-8c5.4-5.3,8-12,8-20.1v-0.1
			c0-3.4-0.6-6.7-1.8-10c-1.2-3.3-2.9-6.2-5.2-9c-2.3-2.7-5.2-4.9-8.9-6.6c-3.7-1.7-7.8-2.5-12.4-2.5c-7.8,0-14.4,2.7-19.9,8.2
			C172,109.1,169.4,115.8,169.4,123.7 M160.3,184.7V88.2h9.2v14.8c2.9-5.3,6.9-9.4,12-12.4c5.1-3,10.9-4.4,17.5-4.4
			c4.6,0,8.9,0.7,12.9,2.2c4,1.4,7.4,3.4,10.1,5.8c2.8,2.4,5.2,5.3,7.2,8.5c2,3.2,3.5,6.6,4.5,10.2c1,3.6,1.4,7.2,1.4,10.9
			c0,4.9-0.9,9.6-2.6,14.1c-1.8,4.5-4.2,8.4-7.2,11.8c-3.1,3.4-6.9,6.1-11.5,8.1c-4.6,2-9.5,3-14.9,3c-3.7,0-7.2-0.5-10.6-1.5
			c-3.4-1-6.2-2.3-8.6-4c-2.4-1.6-4.4-3.4-6-5.2c-1.7-1.9-2.9-3.7-3.8-5.7v14.4v25.9H160.3z"/>
	</g>
	<path class="st1" d="M301.4,122.7h38.6l-19.4-48.6L301.4,122.7z M275.4,158.8l40.5-97h10.5l40.1,97h-11.8l-11.3-27.1h-45.2
		l-11.1,27.1H275.4z"/>
	<path class="st1" d="M383.6,123.8c0,7.9,2.7,14.6,8.1,20c5.3,5.3,12,8,19.9,8c8,0,14.6-2.7,20-8c5.4-5.3,8-12,8-20.1v-0.1
		c0-3.4-0.6-6.7-1.8-10c-1.2-3.3-2.9-6.2-5.2-9c-2.3-2.7-5.2-4.9-8.9-6.6c-3.7-1.7-7.8-2.5-12.4-2.5c-7.8,0-14.4,2.7-19.9,8.2
		C386.2,109.2,383.6,115.9,383.6,123.8 M374.5,181.4V88.3h9.2v14.8c2.9-5.3,6.9-9.4,12-12.4c5.1-3,10.9-4.4,17.5-4.4
		c4.6,0,8.9,0.7,12.9,2.1c4,1.4,7.3,3.4,10.1,5.8c2.8,2.4,5.2,5.3,7.2,8.5c2,3.2,3.5,6.6,4.5,10.2c1,3.6,1.4,7.2,1.4,10.9
		c0,4.9-0.9,9.6-2.6,14c-1.7,4.5-4.2,8.4-7.2,11.8c-3.1,3.4-6.9,6.1-11.4,8.1c-4.6,2-9.5,3-14.8,3c-3.7,0-7.2-0.5-10.6-1.5
		c-3.3-1-6.2-2.3-8.6-4c-2.4-1.6-4.4-3.4-6-5.2c-1.7-1.9-2.9-3.7-3.8-5.7v14.4v22.6H374.5z"/>
	<path class="st1" d="M467.2,123.8c0,7.9,2.7,14.6,8.1,20c5.3,5.3,12,8,19.9,8c8,0,14.6-2.7,20-8c5.4-5.3,8-12,8-20.1v-0.1
		c0-3.4-0.6-6.7-1.8-10c-1.2-3.3-2.9-6.2-5.2-9c-2.3-2.7-5.2-4.9-8.9-6.6c-3.7-1.7-7.8-2.5-12.4-2.5c-7.8,0-14.4,2.7-19.9,8.2
		C469.9,109.2,467.2,115.9,467.2,123.8 M458.2,181.4V88.3h9.2v14.8c2.9-5.3,6.9-9.4,12-12.4c5.1-3,10.9-4.4,17.5-4.4
		c4.6,0,8.9,0.7,12.9,2.1c4,1.4,7.3,3.4,10.1,5.8c2.8,2.4,5.2,5.3,7.2,8.5c2,3.2,3.5,6.6,4.5,10.2c1,3.6,1.4,7.2,1.4,10.9
		c0,4.9-0.9,9.6-2.6,14c-1.7,4.5-4.2,8.4-7.2,11.8c-3.1,3.4-6.9,6.1-11.4,8.1c-4.6,2-9.5,3-14.8,3c-3.7,0-7.2-0.5-10.6-1.5
		c-3.3-1-6.2-2.3-8.6-4c-2.4-1.6-4.4-3.4-6-5.2c-1.7-1.9-2.9-3.7-3.8-5.7v14.4v22.6H458.2z"/>
	<g>
		<path class="st2" d="M81.8,129.9L81.8,129.9c0,0-24.9-26.9-24.9-51.5h49.8C106.7,103.6,81.8,129.9,81.8,129.9z"/>
		<path class="st0" d="M135.8,75.7c-9.6-21-22.7-37.3-35.7-45.9l3.4-7c1.2-2.6,0.1-5.7-2.5-7c-2.6-1.2-5.7-0.1-7,2.5l-3.1,6.4
			c-2.9-1.2-6-1.8-9.2-1.6c-3.2-0.1-6.3,0.4-9.1,1.6l-3.1-6.4c-1.2-2.6-4.4-3.7-7-2.5c-2.6,1.2-3.7,4.4-2.5,7l3.4,7
			c-13,8.6-26.2,24.9-35.7,45.9c-16.8,37.1-15.3,72.8,3.5,81.4c3,1.4,6.3,2,9.8,2c12.5,0,27.6-8.1,40.6-19.8
			c13.8,12.2,29.5,19.6,41.5,19.6c3.4,0,6.5-0.6,9.2-1.8c9.6-4.4,15.1-15.7,15.3-31.9C147.7,110.4,143.5,92.8,135.8,75.7z
			 M81.7,124.8c-3-3.2-5.7-6.7-8.3-10.4H90C87.5,118.1,84.7,121.6,81.7,124.8z M97.6,100.6H65.8c-1.9-4.3-3.3-8.7-4.3-13.2h40.4
			C100.9,91.9,99.5,96.3,97.6,100.6z M81.7,33.6c2.1,0.1,4.3,0.7,6.7,1.7c6,3.6,11.3,12.3,13.7,22.8c1.2,5,1.7,10.3,1.5,15.6H59.8
			c-0.1-5.3,0.4-10.6,1.5-15.6c2.4-10.5,7.7-19.2,13.7-22.8C77.4,34.2,79.7,33.7,81.7,33.6z M35.5,147.6
			c-11.4-5.2-13.5-34.2,1.7-67.5c4.1-9.1,8.9-17,13.8-23.6c-3.5,16-1.5,33.6,5.9,49.7c4.4,9.7,10.5,18.4,17.4,25.9
			C59.6,144.9,43.4,151.1,35.5,147.6z M127.9,147.6c-7.9,3.6-24.2-2.7-38.9-15.6c7.3-7.9,13.5-16.8,17.5-25.7c0,0,0,0,0,0
			c7.3-16.1,9.4-33.7,5.9-49.7c4.9,6.6,9.6,14.5,13.8,23.6c7.1,15.7,11,31.7,10.8,45C136.9,136.8,133.6,145,127.9,147.6z"/>
	</g>
</g>
</svg>
